<mxfile host="app.diagrams.net" agent="Mozilla/5.0 (Windows NT 10.0; Win64; x64) AppleWebKit/537.36 (KHTML, like Gecko) Chrome/127.0.0.0 Safari/537.36" version="24.7.6">
  <diagram id="C5RBs43oDa-KdzZeNtuy" name="Page-1">
    <mxGraphModel dx="2901" dy="1140" grid="1" gridSize="10" guides="1" tooltips="1" connect="1" arrows="1" fold="1" page="1" pageScale="1" pageWidth="827" pageHeight="1169" math="0" shadow="0">
      <root>
        <mxCell id="WIyWlLk6GJQsqaUBKTNV-0" />
        <mxCell id="WIyWlLk6GJQsqaUBKTNV-1" parent="WIyWlLk6GJQsqaUBKTNV-0" />
        <mxCell id="paIUC4zsiGaJv5uiufpH-3" value="数据存储" style="rounded=0;whiteSpace=wrap;html=1;" vertex="1" parent="WIyWlLk6GJQsqaUBKTNV-1">
          <mxGeometry x="-50" y="260" width="120" height="60" as="geometry" />
        </mxCell>
        <mxCell id="paIUC4zsiGaJv5uiufpH-33" value="" style="edgeStyle=orthogonalEdgeStyle;rounded=0;orthogonalLoop=1;jettySize=auto;html=1;" edge="1" parent="WIyWlLk6GJQsqaUBKTNV-1" source="paIUC4zsiGaJv5uiufpH-8" target="paIUC4zsiGaJv5uiufpH-26">
          <mxGeometry relative="1" as="geometry" />
        </mxCell>
        <mxCell id="paIUC4zsiGaJv5uiufpH-43" value="" style="edgeStyle=orthogonalEdgeStyle;rounded=0;orthogonalLoop=1;jettySize=auto;html=1;" edge="1" parent="WIyWlLk6GJQsqaUBKTNV-1" source="paIUC4zsiGaJv5uiufpH-8" target="paIUC4zsiGaJv5uiufpH-42">
          <mxGeometry relative="1" as="geometry" />
        </mxCell>
        <mxCell id="paIUC4zsiGaJv5uiufpH-8" value="流程任务处理" style="rounded=0;whiteSpace=wrap;html=1;" vertex="1" parent="WIyWlLk6GJQsqaUBKTNV-1">
          <mxGeometry x="350" y="260" width="120" height="60" as="geometry" />
        </mxCell>
        <mxCell id="paIUC4zsiGaJv5uiufpH-17" style="edgeStyle=orthogonalEdgeStyle;rounded=0;orthogonalLoop=1;jettySize=auto;html=1;" edge="1" parent="WIyWlLk6GJQsqaUBKTNV-1" source="paIUC4zsiGaJv5uiufpH-10" target="paIUC4zsiGaJv5uiufpH-3">
          <mxGeometry relative="1" as="geometry" />
        </mxCell>
        <mxCell id="paIUC4zsiGaJv5uiufpH-25" value="" style="edgeStyle=orthogonalEdgeStyle;rounded=0;orthogonalLoop=1;jettySize=auto;html=1;" edge="1" parent="WIyWlLk6GJQsqaUBKTNV-1" source="paIUC4zsiGaJv5uiufpH-10" target="paIUC4zsiGaJv5uiufpH-8">
          <mxGeometry relative="1" as="geometry" />
        </mxCell>
        <mxCell id="paIUC4zsiGaJv5uiufpH-10" value="任务生成" style="rounded=0;whiteSpace=wrap;html=1;" vertex="1" parent="WIyWlLk6GJQsqaUBKTNV-1">
          <mxGeometry x="130" y="260" width="120" height="60" as="geometry" />
        </mxCell>
        <mxCell id="paIUC4zsiGaJv5uiufpH-20" style="edgeStyle=orthogonalEdgeStyle;rounded=0;orthogonalLoop=1;jettySize=auto;html=1;" edge="1" parent="WIyWlLk6GJQsqaUBKTNV-1" source="paIUC4zsiGaJv5uiufpH-19" target="paIUC4zsiGaJv5uiufpH-3">
          <mxGeometry relative="1" as="geometry" />
        </mxCell>
        <mxCell id="paIUC4zsiGaJv5uiufpH-19" value="关系型数据库" style="rounded=0;whiteSpace=wrap;html=1;" vertex="1" parent="WIyWlLk6GJQsqaUBKTNV-1">
          <mxGeometry x="-260" y="140" width="120" height="60" as="geometry" />
        </mxCell>
        <mxCell id="paIUC4zsiGaJv5uiufpH-22" style="edgeStyle=orthogonalEdgeStyle;rounded=0;orthogonalLoop=1;jettySize=auto;html=1;exitX=1;exitY=0.5;exitDx=0;exitDy=0;entryX=0.5;entryY=1;entryDx=0;entryDy=0;" edge="1" parent="WIyWlLk6GJQsqaUBKTNV-1" source="paIUC4zsiGaJv5uiufpH-21" target="paIUC4zsiGaJv5uiufpH-3">
          <mxGeometry relative="1" as="geometry" />
        </mxCell>
        <mxCell id="paIUC4zsiGaJv5uiufpH-21" value="非关系型数据库" style="rounded=0;whiteSpace=wrap;html=1;" vertex="1" parent="WIyWlLk6GJQsqaUBKTNV-1">
          <mxGeometry x="-260" y="380" width="120" height="60" as="geometry" />
        </mxCell>
        <mxCell id="paIUC4zsiGaJv5uiufpH-24" value="" style="edgeStyle=orthogonalEdgeStyle;rounded=0;orthogonalLoop=1;jettySize=auto;html=1;" edge="1" parent="WIyWlLk6GJQsqaUBKTNV-1" source="paIUC4zsiGaJv5uiufpH-23" target="paIUC4zsiGaJv5uiufpH-3">
          <mxGeometry relative="1" as="geometry" />
        </mxCell>
        <mxCell id="paIUC4zsiGaJv5uiufpH-23" value="数据库系统" style="rounded=0;whiteSpace=wrap;html=1;" vertex="1" parent="WIyWlLk6GJQsqaUBKTNV-1">
          <mxGeometry x="-260" y="260" width="120" height="60" as="geometry" />
        </mxCell>
        <mxCell id="paIUC4zsiGaJv5uiufpH-38" style="edgeStyle=orthogonalEdgeStyle;rounded=0;orthogonalLoop=1;jettySize=auto;html=1;exitX=0.5;exitY=1;exitDx=0;exitDy=0;entryX=0.5;entryY=0;entryDx=0;entryDy=0;" edge="1" parent="WIyWlLk6GJQsqaUBKTNV-1" source="paIUC4zsiGaJv5uiufpH-26" target="paIUC4zsiGaJv5uiufpH-37">
          <mxGeometry relative="1" as="geometry" />
        </mxCell>
        <mxCell id="paIUC4zsiGaJv5uiufpH-26" value="工作报告" style="rounded=0;whiteSpace=wrap;html=1;" vertex="1" parent="WIyWlLk6GJQsqaUBKTNV-1">
          <mxGeometry x="560" y="260" width="120" height="60" as="geometry" />
        </mxCell>
        <mxCell id="paIUC4zsiGaJv5uiufpH-30" value="" style="edgeStyle=orthogonalEdgeStyle;rounded=0;orthogonalLoop=1;jettySize=auto;html=1;" edge="1" parent="WIyWlLk6GJQsqaUBKTNV-1" source="paIUC4zsiGaJv5uiufpH-28" target="paIUC4zsiGaJv5uiufpH-29">
          <mxGeometry relative="1" as="geometry" />
        </mxCell>
        <mxCell id="paIUC4zsiGaJv5uiufpH-34" style="edgeStyle=orthogonalEdgeStyle;rounded=0;orthogonalLoop=1;jettySize=auto;html=1;" edge="1" parent="WIyWlLk6GJQsqaUBKTNV-1" source="paIUC4zsiGaJv5uiufpH-28" target="paIUC4zsiGaJv5uiufpH-10">
          <mxGeometry relative="1" as="geometry" />
        </mxCell>
        <mxCell id="paIUC4zsiGaJv5uiufpH-28" value="输入" style="rounded=0;whiteSpace=wrap;html=1;" vertex="1" parent="WIyWlLk6GJQsqaUBKTNV-1">
          <mxGeometry x="130" y="80" width="120" height="60" as="geometry" />
        </mxCell>
        <mxCell id="paIUC4zsiGaJv5uiufpH-32" value="" style="edgeStyle=orthogonalEdgeStyle;rounded=0;orthogonalLoop=1;jettySize=auto;html=1;" edge="1" parent="WIyWlLk6GJQsqaUBKTNV-1" source="paIUC4zsiGaJv5uiufpH-29" target="paIUC4zsiGaJv5uiufpH-31">
          <mxGeometry relative="1" as="geometry" />
        </mxCell>
        <mxCell id="paIUC4zsiGaJv5uiufpH-35" style="edgeStyle=orthogonalEdgeStyle;rounded=0;orthogonalLoop=1;jettySize=auto;html=1;entryX=0.5;entryY=0;entryDx=0;entryDy=0;" edge="1" parent="WIyWlLk6GJQsqaUBKTNV-1" source="paIUC4zsiGaJv5uiufpH-29" target="paIUC4zsiGaJv5uiufpH-8">
          <mxGeometry relative="1" as="geometry" />
        </mxCell>
        <mxCell id="paIUC4zsiGaJv5uiufpH-29" value="处理" style="rounded=0;whiteSpace=wrap;html=1;" vertex="1" parent="WIyWlLk6GJQsqaUBKTNV-1">
          <mxGeometry x="350" y="80" width="120" height="60" as="geometry" />
        </mxCell>
        <mxCell id="paIUC4zsiGaJv5uiufpH-36" style="edgeStyle=orthogonalEdgeStyle;rounded=0;orthogonalLoop=1;jettySize=auto;html=1;entryX=0.5;entryY=0;entryDx=0;entryDy=0;" edge="1" parent="WIyWlLk6GJQsqaUBKTNV-1" source="paIUC4zsiGaJv5uiufpH-31" target="paIUC4zsiGaJv5uiufpH-26">
          <mxGeometry relative="1" as="geometry" />
        </mxCell>
        <mxCell id="paIUC4zsiGaJv5uiufpH-31" value="输出" style="rounded=0;whiteSpace=wrap;html=1;" vertex="1" parent="WIyWlLk6GJQsqaUBKTNV-1">
          <mxGeometry x="560" y="80" width="120" height="60" as="geometry" />
        </mxCell>
        <mxCell id="paIUC4zsiGaJv5uiufpH-41" value="" style="edgeStyle=orthogonalEdgeStyle;rounded=0;orthogonalLoop=1;jettySize=auto;html=1;entryX=0.5;entryY=1;entryDx=0;entryDy=0;" edge="1" parent="WIyWlLk6GJQsqaUBKTNV-1" source="paIUC4zsiGaJv5uiufpH-37" target="paIUC4zsiGaJv5uiufpH-10">
          <mxGeometry relative="1" as="geometry">
            <mxPoint x="450" y="450" as="targetPoint" />
          </mxGeometry>
        </mxCell>
        <mxCell id="paIUC4zsiGaJv5uiufpH-44" style="edgeStyle=orthogonalEdgeStyle;rounded=0;orthogonalLoop=1;jettySize=auto;html=1;entryX=1;entryY=0.5;entryDx=0;entryDy=0;" edge="1" parent="WIyWlLk6GJQsqaUBKTNV-1" source="paIUC4zsiGaJv5uiufpH-37" target="paIUC4zsiGaJv5uiufpH-26">
          <mxGeometry relative="1" as="geometry" />
        </mxCell>
        <mxCell id="paIUC4zsiGaJv5uiufpH-37" value="邮箱，接口，文件，输入框" style="rounded=0;whiteSpace=wrap;html=1;" vertex="1" parent="WIyWlLk6GJQsqaUBKTNV-1">
          <mxGeometry x="370" y="810" width="120" height="60" as="geometry" />
        </mxCell>
        <mxCell id="paIUC4zsiGaJv5uiufpH-42" value="业务老师提出的操作逻辑和业务逻辑" style="rounded=0;whiteSpace=wrap;html=1;" vertex="1" parent="WIyWlLk6GJQsqaUBKTNV-1">
          <mxGeometry x="350" y="410" width="120" height="60" as="geometry" />
        </mxCell>
        <mxCell id="paIUC4zsiGaJv5uiufpH-47" style="edgeStyle=orthogonalEdgeStyle;rounded=0;orthogonalLoop=1;jettySize=auto;html=1;entryX=0.564;entryY=0.989;entryDx=0;entryDy=0;entryPerimeter=0;" edge="1" parent="WIyWlLk6GJQsqaUBKTNV-1" source="paIUC4zsiGaJv5uiufpH-10" target="paIUC4zsiGaJv5uiufpH-37">
          <mxGeometry relative="1" as="geometry" />
        </mxCell>
      </root>
    </mxGraphModel>
  </diagram>
</mxfile>
